<?xml version="1.0" encoding="UTF-8"?>
<svg version="1.1" xmlns="http://www.w3.org/2000/svg" width="430" height="344">
<path d="M0 0 C1.45613475 -0.00302502 2.91226792 -0.00691625 4.36839831 -0.01159257 C8.34742068 -0.02183615 12.32635258 -0.01970008 16.30538225 -0.01541197 C20.60541781 -0.01293812 24.90543196 -0.02196706 29.20545959 -0.02944946 C37.62097949 -0.04218006 46.03646745 -0.04399221 54.45199536 -0.0416492 C61.29423978 -0.0398641 68.13647454 -0.0416198 74.9787178 -0.04587364 C75.95360075 -0.04646883 76.92848369 -0.04706402 77.93290854 -0.04767724 C79.91356543 -0.04888903 81.89422231 -0.05010317 83.8748792 -0.05131962 C102.4373991 -0.06218878 120.99990083 -0.06003558 139.56242175 -0.05393478 C156.53156735 -0.04876582 173.50065554 -0.06002163 190.46978979 -0.07903299 C207.90852112 -0.09842018 225.3472253 -0.10666587 242.78596747 -0.10290974 C252.570561 -0.10099908 262.35510567 -0.10347212 272.1396904 -0.11762428 C280.46915654 -0.12955024 288.79854373 -0.13092931 297.12801097 -0.11883412 C301.37457719 -0.11295406 305.6209991 -0.11182177 309.86755562 -0.12383652 C313.76116654 -0.13472433 317.65451316 -0.13155779 321.54811187 -0.11757483 C322.95043968 -0.11493586 324.35278841 -0.11726911 325.75509565 -0.1253107 C340.03191761 -0.20144569 354.85539944 2.2053338 365.81289673 12.20210266 C374.14848485 22.51396872 376.78335385 34.55201777 376.74438477 47.45469666 C376.74891588 48.56238037 376.75344699 49.67006409 376.75811541 50.81131399 C376.77074757 54.51274592 376.76913977 58.2140305 376.76748657 61.91548157 C376.77347263 64.57372074 376.78022213 67.23194849 376.7878418 69.8901825 C376.80442047 76.3561676 376.80994996 82.82211623 376.81106655 89.28812082 C376.8120187 94.54811277 376.81613731 99.80809274 376.8224678 105.0680809 C376.84007317 120.00171024 376.849308 134.93531089 376.84780686 149.86895068 C376.84772694 150.67321212 376.84764703 151.47747357 376.8475647 152.30610657 C376.84748294 153.11135743 376.84740117 153.91660829 376.84731694 154.74626069 C376.84650467 167.78579427 376.86562925 180.82521217 376.89384143 193.86471231 C376.9226227 207.27376855 376.93637879 220.68276847 376.93465388 234.09185636 C376.93399169 241.61185619 376.93940828 249.1317348 376.96100998 256.6517067 C376.97929115 263.05651352 376.98351274 269.4611442 376.96999113 275.86596592 C376.96349558 279.12857653 376.96542611 282.39078262 376.98069763 285.65337372 C377.1285036 319.43150297 377.1285036 319.43150297 366.47695923 332.26069641 C354.75837995 342.47575986 341.04277618 344.564318 326.0627594 344.52812195 C324.59398925 344.53186188 323.12522108 344.53646477 321.65645605 344.54185259 C317.63310523 344.55405601 313.60983773 344.55382526 309.58647263 344.55146384 C305.24203284 344.55105499 300.89761953 344.56210147 296.55319214 344.57157898 C288.04548863 344.58817635 279.53781284 344.59368799 271.0300945 344.59480374 C264.11107322 344.59575499 257.19206107 344.59986919 250.27304268 344.60620499 C230.64079054 344.62381547 211.00856024 344.63304439 191.37630015 344.63154404 C190.31840681 344.63146413 189.26051346 344.63138421 188.17056274 344.63130188 C187.11137194 344.63122012 186.05218113 344.63113836 184.96089364 344.63105412 C167.80610347 344.63024171 150.6514012 344.64936851 133.49663644 344.67757861 C115.86698103 344.70633995 98.23736843 344.72011706 80.60768896 344.71839106 C70.71619903 344.71772819 60.8248012 344.72317516 50.93333244 344.74474716 C42.50910039 344.76300196 34.08500217 344.76727125 25.66075885 344.75372832 C21.36721131 344.74721975 17.07392021 344.74700446 12.78039742 344.76443481 C8.84022525 344.78026524 4.90051071 344.77720153 0.96034903 344.75986655 C-0.45555302 344.75681836 -1.87149008 344.76034555 -3.28735078 344.7715867 C-17.15613621 344.87429363 -30.93380236 342.99564354 -41.52304077 333.26069641 C-51.61866694 322.52998747 -53.83459946 309.26230011 -53.79046631 295.02946472 C-53.79499742 293.94190105 -53.79952853 292.85433737 -53.80419695 291.73381722 C-53.81679366 288.11236189 -53.81522362 284.49105786 -53.81356812 280.86958313 C-53.81955636 278.26355802 -53.82636259 275.65753469 -53.83392334 273.05151367 C-53.85048018 266.72015422 -53.8560305 260.38883202 -53.8571481 254.05745272 C-53.85810123 248.90574463 -53.86222471 243.75404874 -53.86854935 238.60234451 C-53.88614828 223.96735033 -53.89539048 209.33238537 -53.8938884 194.69738053 C-53.89380849 193.90971032 -53.89372857 193.1220401 -53.89364624 192.3105011 C-53.89356448 191.52185894 -53.89348272 190.73321677 -53.89339848 189.92067637 C-53.89258626 177.15098086 -53.91171131 164.38140349 -53.93992297 151.61174212 C-53.968722 138.4715557 -53.98245938 125.33142676 -53.98073542 112.191208 C-53.98007387 104.82543323 -53.98546218 97.45978228 -54.00709152 90.0940361 C-54.02731967 83.1614973 -54.02655823 76.22922294 -54.01205826 69.29667091 C-54.00997623 66.76198888 -54.01463457 64.22729029 -54.02677917 61.69263649 C-54.18813943 25.66273087 -54.18813943 25.66273087 -41.48788452 12.08491516 C-29.88438174 0.89070701 -15.40094767 -0.04560087 0 0 Z M-8.52304077 46.26069641 C-11.79214376 58.66577473 -12.32660155 71.95478825 -6.33944702 83.55366516 C1.40662183 96.30286063 13.66026075 102.48797746 26.28701782 109.47554016 C32.2712991 112.82446598 38.18655741 116.29195353 44.10195923 119.76069641 C44.72632874 120.12651825 45.35069824 120.49234009 45.99398804 120.86924744 C55.82458627 126.63546424 65.52872895 132.57312619 75.11221313 138.74214172 C77.71115053 140.41108562 80.31789581 142.06733425 82.92617798 143.72163391 C91.90543565 149.41759369 100.86396674 155.14353086 109.7850647 160.93013 C135.78974519 181.47283137 135.78974519 181.47283137 165.47695923 190.26069641 C174.32105459 186.6638234 182.26155482 181.35741852 190.16445923 176.07319641 C191.31468405 175.31163025 192.46540722 174.55081629 193.61660767 173.79072571 C195.88285529 172.29377074 198.14727527 170.79412325 200.4100647 169.29194641 C204.33289262 166.69379895 208.27425868 164.12559766 212.22695923 161.57319641 C212.88518677 161.14788635 213.54341431 160.72257629 214.22158813 160.28437805 C223.60980522 154.22896667 233.03794255 148.23651112 242.47695923 142.26069641 C243.41926392 141.66241028 244.3615686 141.06412415 245.33242798 140.44770813 C257.19637962 132.92348641 269.16530225 125.60613522 281.28945923 118.51069641 C281.90561096 118.14978912 282.5217627 117.78888184 283.15658569 117.41703796 C289.14002933 113.91533554 295.13432388 110.43721315 301.18789673 107.05757141 C315.09401624 99.27109696 327.22645192 91.05267287 332.87710571 75.44844055 C333.89944318 71.71984226 333.87141831 68.10293813 333.78945923 64.26069641 C333.79268188 63.50530579 333.79590454 62.74991516 333.79922485 61.97163391 C333.75014401 56.77798861 332.90113492 52.25382234 331.47695923 47.26069641 C325.49045452 48.86369437 320.55194824 51.96904289 315.28945923 55.13569641 C314.31476685 55.71722473 313.34007446 56.29875305 312.33584595 56.89790344 C303.80503034 62.01139997 295.39655417 67.30733539 287.00967407 72.65229797 C282.32513749 75.627209 277.62000031 78.56916088 272.91445923 81.51069641 C271.41060669 82.45102722 271.41060669 82.45102722 269.87637329 83.41035461 C262.39001045 88.08369942 254.87463665 92.70860395 247.35195923 97.32319641 C236.50864182 103.9776725 225.75927637 110.76878056 215.04238892 117.62446594 C210.1519147 120.74360928 205.24022066 123.82922331 200.32925415 126.91596985 C196.47287173 129.34589576 192.63745968 131.8017759 188.83242798 134.31147766 C188.07872925 134.80688049 187.32503052 135.30228333 186.54849243 135.81269836 C185.14340318 136.73896093 183.74182886 137.6705918 182.34487915 138.60908508 C176.2464734 142.62578286 169.55487054 146.8544925 162.03945923 146.76069641 C160.80389282 146.77616516 160.80389282 146.77616516 159.54336548 146.79194641 C150.4512364 145.21674953 143.0607344 140.34691037 135.53945923 135.26069641 C133.50506133 133.90929368 131.46989393 132.5590487 129.43399048 131.20991516 C128.42932739 130.54137512 127.42466431 129.87283508 126.38955688 129.18403625 C122.2055733 126.4211341 117.97330194 123.73892379 113.72695923 121.07319641 C112.95795288 120.58971741 112.18894653 120.1062384 111.39663696 119.60810852 C109.85761869 118.64093401 108.31831432 117.67421459 106.77871704 116.70796204 C104.45365549 115.24604382 102.13265807 113.77788361 99.81289673 112.30757141 C90.79266966 106.59154266 81.74005797 100.93149342 72.65396118 95.320755 C66.01723492 91.22069265 59.40060927 87.08934734 52.78945923 82.94819641 C43.23164612 76.96449094 33.64240196 71.03351975 24.03091431 65.13642883 C18.75423346 61.89812936 13.48609331 58.64781397 8.23867798 55.36225891 C7.26503296 54.75398254 6.29138794 54.14570618 5.28823853 53.51899719 C3.45535469 52.37262903 1.62467346 51.22272935 -0.20346069 50.06880188 C-1.01017212 49.56493958 -1.81688354 49.06107727 -2.64804077 48.54194641 C-3.3518689 48.09915344 -4.05569702 47.65636047 -4.78085327 47.20014954 C-6.48654592 46.10248664 -6.48654592 46.10248664 -8.52304077 46.26069641 Z " fill="#FD0001" transform="translate(53.523040771484375,-0.2606964111328125)"/>
</svg>
