<?xml version="1.0" encoding="UTF-8"?>
<svg version="1.1" xmlns="http://www.w3.org/2000/svg" width="807" height="1097">
<path d="M0 0 C3.77822436 3.46365949 7.48401096 6.99886584 11.1640625 10.56640625 C11.8442041 11.22463379 12.5243457 11.88286133 13.22509766 12.56103516 C20.58536343 19.71736837 27.76263985 26.87001891 34.109375 34.953125 C36.30505053 37.74572372 38.60350327 40.43079315 40.9140625 43.12890625 C56.93969509 62.35966535 70.10304006 83.69106161 82.1640625 105.56640625 C82.86813232 106.84257812 82.86813232 106.84257812 83.58642578 108.14453125 C109.31852034 155.1563019 126.56943331 207.54675813 134.1640625 260.56640625 C134.44443359 262.41588867 134.44443359 262.41588867 134.73046875 264.30273438 C136.6724734 278.28665963 136.53878528 292.38570253 136.53466797 306.47460938 C136.53450665 309.34791574 136.54822608 312.22057611 136.57568359 315.09375 C137.08199292 368.97380087 124.35098313 420.95335986 101.1640625 469.56640625 C100.76574219 470.40155762 100.36742187 471.23670898 99.95703125 472.09716797 C86.73584177 499.59409419 70.10360826 525.63940415 51.1640625 549.56640625 C50.65069336 550.21577148 50.13732422 550.86513672 49.60839844 551.53417969 C38.39717512 565.6452094 26.58402535 579.14883747 14.2421875 592.27734375 C10.7849555 595.95968822 7.44175762 599.72359129 4.1640625 603.56640625 C3.28928978 604.58743435 2.41426551 605.60824696 1.5390625 606.62890625 C0.02197353 608.39846505 -1.49470133 610.16836922 -3.01000977 611.93945312 C-6.78731791 616.35244177 -10.58872511 620.74388652 -14.3984375 625.12890625 C-22.65340991 634.64709508 -30.83497193 644.18352193 -38.57299805 654.12963867 C-41.54063427 657.93903871 -44.56255059 661.69738265 -47.62475586 665.43115234 C-53.47863156 672.56884115 -59.11079324 679.832125 -64.609375 687.24609375 C-66.93764494 690.38013485 -69.30244418 693.48317699 -71.6875 696.57421875 C-78.74779752 705.73203 -85.64552474 714.93487435 -92.06030273 724.55981445 C-94.81596531 728.68075458 -97.66502008 732.71024079 -100.61888123 736.69044495 C-107.09938169 745.42432654 -113.1460259 754.39594997 -119.0859375 763.50390625 C-119.58317322 764.26375824 -120.08040894 765.02361023 -120.5927124 765.80648804 C-133.86195071 786.08404474 -146.6666411 806.60753273 -158.8359375 827.56640625 C-159.33689941 828.4279834 -159.83786133 829.28956055 -160.35400391 830.17724609 C-182.74000477 868.76852758 -203.57503779 908.51653561 -221.1484375 949.546875 C-221.68445839 950.79710953 -221.68445839 950.79710953 -222.23130798 952.07260132 C-223.95377847 956.09887516 -225.66153095 960.13050952 -227.34594727 964.17285156 C-232.86167793 977.2944112 -238.85136789 990.85237994 -252.41015625 997.25390625 C-257.61134922 999.07229326 -262.74986725 999.08070225 -268.2109375 999.06640625 C-269.18804687 999.09476563 -270.16515625 999.123125 -271.171875 999.15234375 C-280.33045796 999.17670168 -287.29581942 996.21198 -294.0234375 990.00390625 C-301.49474756 981.99613224 -305.89616827 971.65040444 -310.1484375 961.69140625 C-311.18090393 959.32365927 -312.21617544 956.95744921 -313.2578125 954.59375 C-313.53452286 953.9657399 -313.81123322 953.3377298 -314.09632874 952.69068909 C-326.50678472 924.68074221 -339.94544522 896.99901785 -354.75 870.1796875 C-356.8358594 866.40014202 -358.8912504 862.60637799 -360.921875 858.796875 C-368.54574615 844.51588933 -376.63467764 830.55441157 -384.96826172 816.68017578 C-386.66325797 813.85429576 -388.34782099 811.02259411 -390.02734375 808.1875 C-404.97003289 783.01453264 -421.10619333 758.58352373 -437.8359375 734.56640625 C-438.30177246 733.89722168 -438.76760742 733.22803711 -439.24755859 732.53857422 C-457.72134344 706.05552587 -477.1375347 680.12643602 -497.66796875 655.19921875 C-499.10908123 653.44911099 -500.54403153 651.69391013 -501.97265625 649.93359375 C-506.68817025 644.12597687 -511.50910044 638.42168457 -516.39599609 632.75854492 C-519.42156013 629.2444133 -522.372971 625.68533693 -525.2734375 622.06640625 C-529.87447557 616.39263071 -534.84684701 611.09930069 -539.83984375 605.7734375 C-543.26679271 602.11654859 -546.57847748 598.37481088 -549.8359375 594.56640625 C-550.71216071 593.54420322 -551.58847095 592.52207479 -552.46484375 591.5 C-553.97856471 589.73420206 -555.49170536 587.96792193 -557.00317383 586.20019531 C-560.28525438 582.36406334 -563.58936828 578.54816456 -566.9074707 574.74316406 C-572.37542593 568.46634913 -577.7033292 562.12218859 -582.8359375 555.56640625 C-583.8235432 554.34450576 -584.81189035 553.12320436 -585.80078125 551.90234375 C-637.23750434 487.80090408 -670.71819595 404.7363049 -671.0390625 321.91015625 C-671.04476257 320.72836792 -671.05046265 319.54657959 -671.05633545 318.32897949 C-671.06572776 315.83472572 -671.07229628 313.34045985 -671.07617188 310.84619141 C-671.08576907 307.13159845 -671.11680403 303.41758607 -671.1484375 299.703125 C-671.24392922 278.1570457 -669.57142984 256.76158819 -665.5859375 235.56640625 C-665.37541748 234.42800293 -665.16489746 233.28959961 -664.94799805 232.11669922 C-658.69743358 199.3366609 -648.54425867 167.97159255 -634.8359375 137.56640625 C-634.41844238 136.63505859 -634.00094727 135.70371094 -633.57080078 134.74414062 C-616.30436843 96.52649187 -592.30361986 60.97516552 -563.546875 30.46484375 C-561.18553008 27.94017814 -558.91258648 25.36505125 -556.6484375 22.75390625 C-489.3324635 -52.24486913 -387.34771821 -92.45482616 -288.36914062 -98.20214844 C-193.70643713 -103.25360129 -93.57217334 -74.12483382 0 0 Z M-369.8359375 200.56640625 C-371.11404297 201.74976563 -371.11404297 201.74976563 -372.41796875 202.95703125 C-399.16101334 228.39450989 -413.73789713 266.08915646 -414.8359375 302.60546875 C-415.25493468 340.15060874 -400.77430068 376.72955267 -374.66015625 403.6796875 C-373.93578369 404.41759521 -373.93578369 404.41759521 -373.19677734 405.17041016 C-371.97785272 406.42082476 -370.78947011 407.70084288 -369.60546875 408.984375 C-347.50297567 432.41384703 -312.50953387 448.07320431 -280.43701172 449.7434082 C-263.52862137 450.03557439 -247.28499186 450.03534576 -230.8359375 445.56640625 C-230.0934375 445.37336914 -229.3509375 445.18033203 -228.5859375 444.98144531 C-208.44456824 439.58263639 -189.71734702 428.95344749 -173.8359375 415.56640625 C-173.27841797 415.09847656 -172.72089844 414.63054687 -172.14648438 414.1484375 C-164.86891769 407.95513284 -158.62218775 401.16901701 -152.8359375 393.56640625 C-152.17078125 392.71691406 -151.505625 391.86742187 -150.8203125 390.9921875 C-128.18716859 361.1859409 -117.904005 322.96491311 -122.65600586 285.8190918 C-128.26181421 247.63627356 -148.90316277 211.85991273 -179.8359375 188.56640625 C-180.35881348 188.16325195 -180.88168945 187.76009766 -181.42041016 187.34472656 C-239.23479916 142.92989332 -318.40885762 150.93246025 -369.8359375 200.56640625 Z " fill="#FF0000" transform="translate(670.8359375,98.43359375)"/>
</svg>
